<?xml version="1.0" encoding="utf-8"?>
<!-- Generator: Adobe Illustrator 23.0.1, SVG Export Plug-In . SVG Version: 6.00 Build 0)  -->
<svg version="1.1" xmlns="http://www.w3.org/2000/svg" xmlns:xlink="http://www.w3.org/1999/xlink" x="0px" y="0px"
	 viewBox="0 0 360 360" style="enable-background:new 0 0 360 360;" xml:space="preserve">
<style type="text/css">
	.st0{filter:url(#Adobe_OpacityMaskFilter);}
	.st1{mask:url(#SVGID_1_);}
	.st2{fill:#94CBE5;}
	.st3{fill:url(#SVGID_2_);}
	.st4{fill:none;stroke:#F16522;stroke-width:1.65;stroke-miterlimit:10;}
	.st5{fill:#00306C;}
	.st6{fill:url(#SVGID_3_);}
	.st7{fill:url(#SVGID_4_);}
	.st8{fill:url(#SVGID_5_);}
	.st9{filter:url(#Adobe_OpacityMaskFilter_1_);}
	.st10{mask:url(#SVGID_6_);}
	.st11{fill:#FFFFFF;}
	.st12{fill:url(#SVGID_7_);}
	.st13{fill:url(#SVGID_8_);}
	.st14{fill:#2EE6D6;}
	.st15{fill:url(#SVGID_9_);}
	.st16{fill:url(#SVGID_10_);}
	.st17{fill:url(#SVGID_11_);}
	.st18{fill:url(#SVGID_12_);}
	.st19{filter:url(#Adobe_OpacityMaskFilter_2_);}
	.st20{mask:url(#SVGID_13_);}
	.st21{fill:url(#SVGID_14_);}
	.st22{opacity:0.5;}
	.st23{filter:url(#Adobe_OpacityMaskFilter_3_);}
	.st24{mask:url(#SVGID_15_);}
	.st25{fill:#669EFF;}
	.st26{fill:url(#SVGID_16_);}
	.st27{fill:url(#SVGID_17_);}
	.st28{fill:url(#SVGID_18_);}
	.st29{fill:url(#SVGID_19_);}
	.st30{opacity:0.75;}
	.st31{filter:url(#Adobe_OpacityMaskFilter_4_);}
	.st32{mask:url(#SVGID_20_);}
	.st33{fill:none;stroke:#F16522;stroke-width:1.65;stroke-linecap:round;stroke-linejoin:round;stroke-miterlimit:10;}
	.st34{fill:#6BADD4;}
	.st35{fill:url(#SVGID_25_);}
	.st36{fill:url(#SVGID_26_);}
	.st37{fill:url(#SVGID_27_);}
	.st38{opacity:0.5;fill:url(#SVGID_28_);}
	.st39{opacity:0.5;fill:url(#SVGID_29_);}
	.st40{opacity:0.5;fill:url(#SVGID_30_);}
	.st41{opacity:0.5;fill:url(#SVGID_31_);}
	.st42{opacity:0.5;fill:url(#SVGID_32_);}
	.st43{fill:url(#SVGID_33_);}
	.st44{fill:url(#SVGID_34_);}
	.st45{fill:url(#SVGID_35_);}
	.st46{display:none;}
	.st47{display:inline;opacity:0.25;}
</style>
<g id="Layer_1">
	<g>
		<g>
			<g>
				<g>
					<defs>
						<filter id="Adobe_OpacityMaskFilter" filterUnits="userSpaceOnUse" x="524.4" y="287.85" width="53.66" height="10.82">
							<feFlood  style="flood-color:white;flood-opacity:1" result="back"/>
							<feBlend  in="SourceGraphic" in2="back" mode="normal"/>
						</filter>
					</defs>
					<mask maskUnits="userSpaceOnUse" x="524.4" y="287.85" width="53.66" height="10.82" id="SVGID_1_">
						<g class="st0">
							
								<image style="overflow:visible;" width="242" height="62" xlink:href="964A7AA8A1D3A670.jpg"  transform="matrix(0.24 0 0 0.24 522.3669 285.84)">
							</image>
						</g>
					</mask>
					<g class="st1">
						<ellipse class="st2" cx="551.23" cy="293.26" rx="26.83" ry="5.41"/>
					</g>
				</g>
				<path class="st2" d="M614.65,216.77c0,0-4.3,7.99-13.49,7.99c-12.75,0-7.36-17.47-14.55-16.99c-5.92,0.4-3.99,13.79-11.14,25.16
					c-7.73,12.31-25.69,1.4-25.69,1.4l-24.61-10.09c-13.43-5.55-12.81-29.52-17.61-31.78c-4.8-2.27-6.7,14.08-11.09,15.47
					c-0.64,0.2-1.31,0.32-1.99,0.31c-1.09-0.02-2.13-0.39-3.05-0.96c-0.97-0.6-1.8-1.4-2.58-2.22c-0.06-0.07-0.13-0.14-0.19-0.21
					c-0.54-0.57-1.05-1.16-1.56-1.75c-0.27-0.32-0.52-0.66-0.79-0.98c-0.23-0.27-0.51-0.56-0.88-0.59
					c-0.34-0.03-0.67,0.27-0.84,0.53c-0.43,0.64-0.29,1.31-0.22,2.03c0.03,0.32,0.06,0.63,0.1,0.95c0,0,3.86,42.53,50.68,54.9
					c46.82,12.38,73.42-20.21,73.42-20.21L614.65,216.77z"/>
				<linearGradient id="SVGID_2_" gradientUnits="userSpaceOnUse" x1="549.4748" y1="254.174" x2="549.4748" y2="208.1022">
					<stop  offset="0" style="stop-color:#017ABD"/>
					<stop  offset="1" style="stop-color:#017ABD;stop-opacity:0"/>
				</linearGradient>
				<path class="st3" d="M614.65,216.77c0,0-4.3,7.99-13.49,7.99c-12.75,0-7.36-17.47-14.55-16.99c-5.92,0.4-3.99,13.79-11.14,25.16
					c-7.73,12.31-25.69,1.4-25.69,1.4l-24.61-10.09c-13.43-5.55-12.81-29.52-17.61-31.78c-4.8-2.27-6.7,14.08-11.09,15.47
					c-0.64,0.2-1.31,0.32-1.99,0.31c-1.09-0.02-2.13-0.39-3.05-0.96c-0.97-0.6-1.8-1.4-2.58-2.22c-0.06-0.07-0.13-0.14-0.19-0.21
					c-0.54-0.57-1.05-1.16-1.56-1.75c-0.27-0.32-0.52-0.66-0.79-0.98c-0.23-0.27-0.51-0.56-0.88-0.59
					c-0.34-0.03-0.67,0.27-0.84,0.53c-0.43,0.64-0.29,1.31-0.22,2.03c0.03,0.32,0.06,0.63,0.1,0.95c0,0,3.86,42.53,50.68,54.9
					c46.82,12.38,73.42-20.21,73.42-20.21L614.65,216.77z"/>
				<path class="st4" d="M539.68,134.68"/>
				<path class="st5" d="M587.74,101.67c-4.58-0.72-6.6,18.97-21.04,15.06c-14.44-3.92-18.97-18.15-19.8-23.31s-4.95,0-4.95,0
					s-14.03,13.61-5.78,42.9s24.44,16.89,34.9,15.68c17.7-2.06,15.84,14.44,34.2,9.49c18.36-4.95,11.01-37.07,5.77-39.81
					c-0.85-0.44-0.95,1.95-0.97,2.38c-0.18,2.91-0.69,5.85-2.16,8.41c-1.12,1.95-2.98,3.31-4.91,1.45
					C598.05,129.17,589.94,102.02,587.74,101.67z"/>
				<linearGradient id="SVGID_3_" gradientUnits="userSpaceOnUse" x1="585.6196" y1="168.5408" x2="572.6258" y2="121.7221">
					<stop  offset="0" style="stop-color:#017ABD"/>
					<stop  offset="1" style="stop-color:#017ABD;stop-opacity:0"/>
				</linearGradient>
				<path class="st6" d="M587.74,101.67c-4.58-0.72-6.6,18.97-21.04,15.06c-14.44-3.92-18.97-18.15-19.8-23.31s-4.95,0-4.95,0
					s-14.03,13.61-5.78,42.9s24.44,16.89,34.9,15.68c17.7-2.06,15.84,14.44,34.2,9.49c18.36-4.95,11.01-37.07,5.77-39.81
					c-0.85-0.44-0.95,1.95-0.97,2.38c-0.18,2.91-0.69,5.85-2.16,8.41c-1.12,1.95-2.98,3.31-4.91,1.45
					C598.05,129.17,589.94,102.02,587.74,101.67z"/>
				<linearGradient id="SVGID_4_" gradientUnits="userSpaceOnUse" x1="585.6196" y1="168.5408" x2="572.6258" y2="121.7221">
					<stop  offset="0" style="stop-color:#017ABD"/>
					<stop  offset="1" style="stop-color:#017ABD;stop-opacity:0"/>
				</linearGradient>
				<path class="st7" d="M587.74,101.67c-4.58-0.72-6.6,18.97-21.04,15.06c-14.44-3.92-18.97-18.15-19.8-23.31s-4.95,0-4.95,0
					s-14.03,13.61-5.78,42.9s24.44,16.89,34.9,15.68c17.7-2.06,15.84,14.44,34.2,9.49c18.36-4.95,11.01-37.07,5.77-39.81
					c-0.85-0.44-0.95,1.95-0.97,2.38c-0.18,2.91-0.69,5.85-2.16,8.41c-1.12,1.95-2.98,3.31-4.91,1.45
					C598.05,129.17,589.94,102.02,587.74,101.67z"/>
				<linearGradient id="SVGID_5_" gradientUnits="userSpaceOnUse" x1="575.2945" y1="89.9187" x2="575.2945" y2="126.2211">
					<stop  offset="0" style="stop-color:#FFFFFF"/>
					<stop  offset="1" style="stop-color:#FFFFFF;stop-opacity:0"/>
				</linearGradient>
				<path class="st8" d="M587.74,101.67c-4.58-0.72-6.6,18.97-21.04,15.06c-14.44-3.92-18.97-18.15-19.8-23.31s-4.95,0-4.95,0
					s-14.03,13.61-5.78,42.9s24.44,16.89,34.9,15.68c17.7-2.06,15.84,14.44,34.2,9.49c18.36-4.95,11.01-37.07,5.77-39.81
					c-0.85-0.44-0.95,1.95-0.97,2.38c-0.18,2.91-0.69,5.85-2.16,8.41c-1.12,1.95-2.98,3.31-4.91,1.45
					C598.05,129.17,589.94,102.02,587.74,101.67z"/>
				<g>
					<defs>
						<filter id="Adobe_OpacityMaskFilter_1_" filterUnits="userSpaceOnUse" x="538.31" y="99.17" width="73.97" height="58.49">
							<feFlood  style="flood-color:white;flood-opacity:1" result="back"/>
							<feBlend  in="SourceGraphic" in2="back" mode="normal"/>
						</filter>
					</defs>
					<mask maskUnits="userSpaceOnUse" x="538.31" y="99.17" width="73.97" height="58.49" id="SVGID_6_">
						<g class="st9">
							
								<image style="overflow:visible;" width="326" height="262" xlink:href="964A7AA8A1D3A671.jpg"  transform="matrix(0.24 0 0 0.24 536.1469 97.1647)">
							</image>
						</g>
					</mask>
					<g class="st10">
						<path class="st11" d="M598.98,157.67c-3.7,0-5.67-1.59-8.65-4c-3.64-2.94-8.16-6.6-16.31-6.6c-1.09,0-2.26,0.07-3.5,0.21
							c-2.43,0.28-4.86,0.99-7.43,1.75c-3.11,0.91-6.33,1.86-9.21,1.86c-2.59,0-8.67,0-13.13-15.85
							c-5.53-19.65-0.33-31.21,2.71-35.86c2.73,8.24,9.3,18.7,21.99,22.14c1.67,0.45,3.31,0.68,4.88,0.68h0
							c9,0,13.62-7.16,16.43-12.07c0.76,1.86,1.58,3.95,2.28,5.74c4.34,11.08,7.43,18.58,10.67,21.68c1.9,1.82,3.86,2.2,5.18,2.2
							c2.67,0,5.14-1.54,6.85-4.24c0.69,4.13,0.85,8.96-0.31,13.28c-1.23,4.58-3.65,7.29-7.4,8.31
							C602.14,157.41,600.45,157.67,598.98,157.67z"/>
					</g>
				</g>
				<path class="st2" d="M549.24,154.93c2.97,0.88,8.03,1.13,13.64-3.44c8.87-7.22,22.79-27.84,27.43-22.17s5.88,12.58,11.14,11.34
					c1.17-0.28,2.19-0.96,3.04-1.8c3.94-3.91,4.84-10.02,5.55-15.23c0.05-0.37,0.25-2.33,1-1.94c5.24,2.73,12.58,34.86-5.77,39.81
					c-18.36,4.95-16.5-11.55-34.2-9.49C564.86,152.72,556.63,157.39,549.24,154.93l-2.74-1.3"/>
				<linearGradient id="SVGID_7_" gradientUnits="userSpaceOnUse" x1="559.1895" y1="142.0246" x2="590.127" y2="142.0246">
					<stop  offset="0" style="stop-color:#017ABD"/>
					<stop  offset="1" style="stop-color:#017ABD;stop-opacity:0"/>
				</linearGradient>
				<path class="st12" d="M549.24,154.93c2.97,0.88,8.03,1.13,13.64-3.44c8.87-7.22,22.79-27.84,27.43-22.17s5.88,12.58,11.14,11.34
					c1.17-0.28,2.19-0.96,3.04-1.8c3.94-3.91,4.84-10.02,5.55-15.23c0.05-0.37,0.25-2.33,1-1.94c5.24,2.73,12.58,34.86-5.77,39.81
					c-18.36,4.95-16.5-11.55-34.2-9.49C564.86,152.72,556.63,157.39,549.24,154.93l-2.74-1.3"/>
				<linearGradient id="SVGID_8_" gradientUnits="userSpaceOnUse" x1="600.4542" y1="183.1425" x2="585.6041" y2="151.2425">
					<stop  offset="0" style="stop-color:#017ABD"/>
					<stop  offset="1" style="stop-color:#017ABD;stop-opacity:0"/>
				</linearGradient>
				<path class="st13" d="M549.24,154.93c2.97,0.88,8.03,1.13,13.64-3.44c8.87-7.22,22.79-27.84,27.43-22.17s5.88,12.58,11.14,11.34
					c1.17-0.28,2.19-0.96,3.04-1.8c3.94-3.91,4.84-10.02,5.55-15.23c0.05-0.37,0.25-2.33,1-1.94c5.24,2.73,12.58,34.86-5.77,39.81
					c-18.36,4.95-16.5-11.55-34.2-9.49C564.86,152.72,556.63,157.39,549.24,154.93l-2.74-1.3"/>
				<g>
					<path class="st14" d="M553.9,153.56c0.12,0.02,0.26,0.04,0.39,0.06c-0.13-0.03-0.26-0.05-0.39-0.08L553.9,153.56z"/>
				</g>
				<g>
					<path class="st2" d="M498.28,163.16c-3.5,0-6.69-0.47-9.65-1.26c-2.8,9.72-2.6,12.39-2.6,12.39s-1.53,18.24,3.6,13.73
						c5.02-4.41,4.39-16.87,15.39-14.59l-3.61-10.43C500.38,163.09,499.36,163.16,498.28,163.16z"/>
					<linearGradient id="SVGID_9_" gradientUnits="userSpaceOnUse" x1="505.4416" y1="193.6607" x2="491.925" y2="171.7821">
						<stop  offset="0" style="stop-color:#017ABD"/>
						<stop  offset="1" style="stop-color:#017ABD;stop-opacity:0"/>
					</linearGradient>
					<path class="st15" d="M498.28,163.16c-3.5,0-6.69-0.47-9.65-1.26c-2.8,9.72-2.6,12.39-2.6,12.39s-1.53,18.24,3.6,13.73
						c5.02-4.41,4.39-16.87,15.39-14.59l-3.61-10.43C500.38,163.09,499.36,163.16,498.28,163.16z"/>
					<linearGradient id="SVGID_10_" gradientUnits="userSpaceOnUse" x1="495.4225" y1="165.0597" x2="495.4225" y2="180.4402">
						<stop  offset="0" style="stop-color:#017ABD"/>
						<stop  offset="1" style="stop-color:#017ABD;stop-opacity:0"/>
					</linearGradient>
					<path class="st16" d="M498.28,163.16c-3.5,0-6.69-0.47-9.65-1.26c-2.8,9.72-2.6,12.39-2.6,12.39s-1.53,18.24,3.6,13.73
						c5.02-4.41,4.39-16.87,15.39-14.59l-3.61-10.43C500.38,163.09,499.36,163.16,498.28,163.16z"/>
					<path class="st5" d="M486.04,174.29c6.97-21.21,25.19,14.01,39.07,5.93c19.61-11.41,2.49-68.14,0-56.67
						s-12.16,10.91-12.16,10.91h-0.03c-7.64,0-14.8,3.85-18.89,10.3C489.9,151.28,485.93,161,486.04,174.29L486.04,174.29z"/>
					<path class="st5" d="M486.04,174.29c6.97-21.21,25.19,14.01,39.07,5.93c19.61-11.41,2.49-68.14,0-56.67
						s-12.16,10.91-12.16,10.91h-0.03c-7.64,0-14.8,3.85-18.89,10.3C489.9,151.28,485.93,161,486.04,174.29L486.04,174.29z"/>
					<linearGradient id="SVGID_11_" gradientUnits="userSpaceOnUse" x1="520.1602" y1="202.6583" x2="508.6865" y2="153.7197">
						<stop  offset="0" style="stop-color:#017ABD"/>
						<stop  offset="1" style="stop-color:#017ABD;stop-opacity:0"/>
					</linearGradient>
					<path class="st17" d="M486.04,174.29c6.97-21.21,25.19,14.01,39.07,5.93c19.61-11.41,2.49-68.14,0-56.67
						s-12.16,10.91-12.16,10.91h-0.03c-7.64,0-14.8,3.85-18.89,10.3C489.9,151.28,485.93,161,486.04,174.29L486.04,174.29z"/>
					<linearGradient id="SVGID_12_" gradientUnits="userSpaceOnUse" x1="520.1602" y1="202.6583" x2="508.6865" y2="153.7197">
						<stop  offset="0" style="stop-color:#017ABD"/>
						<stop  offset="1" style="stop-color:#017ABD;stop-opacity:0"/>
					</linearGradient>
					<path class="st18" d="M486.04,174.29c6.97-21.21,25.19,14.01,39.07,5.93c19.61-11.41,2.49-68.14,0-56.67
						s-12.16,10.91-12.16,10.91h-0.03c-7.64,0-14.8,3.85-18.89,10.3C489.9,151.28,485.93,161,486.04,174.29L486.04,174.29z"/>
					<g>
						<defs>
							<filter id="Adobe_OpacityMaskFilter_2_" filterUnits="userSpaceOnUse" x="495.42" y="134.58" width="34.22" height="42.28">
								<feFlood  style="flood-color:white;flood-opacity:1" result="back"/>
								<feBlend  in="SourceGraphic" in2="back" mode="normal"/>
							</filter>
						</defs>
						<mask maskUnits="userSpaceOnUse" x="495.42" y="134.58" width="34.22" height="42.28" id="SVGID_13_">
							<g class="st19">
								
									<image style="overflow:visible;" width="162" height="195" xlink:href="964A7AA8A1D3A677.jpg"  transform="matrix(0.24 0 0 0.24 493.2031 132.4439)">
								</image>
							</g>
						</mask>
						<g class="st20">
							<path class="st11" d="M522.04,176.5c-3.23,0-8.27,1.73-12.32-2.35c-5.05-5.09-9.43-9.5-14.3-9.69c0.79-3.1,2-18.49,3.62-20.2
								c2.58-2.72,5.57-2.86,6.15-2.86l0.25,0.03l0.13-0.02c0,0,8.92,0,8.92,0c4.2,0,9.18-1.9,12.43-6.83
								c1.85,6.17,3.55,28.81,2.29,37.19c-0.83,5.53-2.8,2.48-5.87,4.35C522.91,176.38,522.51,176.5,522.04,176.5z"/>
						</g>
					</g>
					<linearGradient id="SVGID_14_" gradientUnits="userSpaceOnUse" x1="494.2731" y1="121.3124" x2="509.0668" y2="153.5852">
						<stop  offset="0" style="stop-color:#FFFFFF"/>
						<stop  offset="1" style="stop-color:#FFFFFF;stop-opacity:0"/>
					</linearGradient>
					<path class="st21" d="M486.04,174.29c6.97-21.21,25.19,14.01,39.07,5.93c19.61-11.41,2.49-68.14,0-56.67
						s-12.16,10.91-12.16,10.91h-0.03c-7.64,0-14.8,3.85-18.89,10.3C489.9,151.28,485.93,161,486.04,174.29L486.04,174.29z"/>
				</g>
				<g class="st22">
					<defs>
						<filter id="Adobe_OpacityMaskFilter_3_" filterUnits="userSpaceOnUse" x="536.44" y="287.79" width="30.25" height="5.47">
							<feFlood  style="flood-color:white;flood-opacity:1" result="back"/>
							<feBlend  in="SourceGraphic" in2="back" mode="normal"/>
						</filter>
					</defs>
					<mask maskUnits="userSpaceOnUse" x="536.44" y="287.79" width="30.25" height="5.47" id="SVGID_15_">
						<g class="st23">
							
								<image style="overflow:visible;" width="143" height="42" xlink:href="964A7AA8A1D3A672.jpg"  transform="matrix(0.24 0 0 0.24 534.3669 285.6)">
							</image>
						</g>
					</mask>
					<g class="st24">
						<ellipse class="st25" cx="551.56" cy="290.53" rx="15.12" ry="2.73"/>
					</g>
				</g>
				<path class="st5" d="M615.57,216.93c0-0.53-0.74-0.66-0.91-0.16c-3.19,9-16.44,32.25-37.44,32.25
					c-28.87,0-25.01-18.84-35.18-34.24c-10.17-15.4-17.05,11.27-19.11,15.26c-2.06,3.99-9.21,5.22-15.26-5.64
					c-6.05-10.86-7.69-3.45-12.24-5.02c-7.56-2.61-11.14-16.25-11.14-16.25s4.68,68.98,70.68,68.98
					C612.13,272.12,615.65,228.58,615.57,216.93z"/>
				<linearGradient id="SVGID_16_" gradientUnits="userSpaceOnUse" x1="531.9645" y1="283.7285" x2="542.552" y2="242.7535">
					<stop  offset="0" style="stop-color:#017ABD"/>
					<stop  offset="1" style="stop-color:#017ABD;stop-opacity:0"/>
				</linearGradient>
				<path class="st26" d="M615.57,216.93c0-0.53-0.74-0.66-0.91-0.16c-3.19,9-16.44,32.25-37.44,32.25
					c-28.87,0-25.01-18.84-35.18-34.24c-10.17-15.4-17.05,11.27-19.11,15.26c-2.06,3.99-9.21,5.22-15.26-5.64
					c-6.05-10.86-7.69-3.45-12.24-5.02c-7.56-2.61-11.14-16.25-11.14-16.25s4.68,68.98,70.68,68.98
					C612.13,272.12,615.65,228.58,615.57,216.93z"/>
				<linearGradient id="SVGID_17_" gradientUnits="userSpaceOnUse" x1="531.9645" y1="283.7285" x2="542.552" y2="242.7535">
					<stop  offset="0" style="stop-color:#017ABD"/>
					<stop  offset="1" style="stop-color:#017ABD;stop-opacity:0"/>
				</linearGradient>
				<path class="st27" d="M615.57,216.93c0-0.53-0.74-0.66-0.91-0.16c-3.19,9-16.44,32.25-37.44,32.25
					c-28.87,0-25.01-18.84-35.18-34.24c-10.17-15.4-17.05,11.27-19.11,15.26c-2.06,3.99-9.21,5.22-15.26-5.64
					c-6.05-10.86-7.69-3.45-12.24-5.02c-7.56-2.61-11.14-16.25-11.14-16.25s4.68,68.98,70.68,68.98
					C612.13,272.12,615.65,228.58,615.57,216.93z"/>
				<linearGradient id="SVGID_18_" gradientUnits="userSpaceOnUse" x1="551.9532" y1="204.6856" x2="546.7283" y2="227.9231">
					<stop  offset="0" style="stop-color:#FFFFFF"/>
					<stop  offset="1" style="stop-color:#FFFFFF;stop-opacity:0"/>
				</linearGradient>
				<path class="st28" d="M615.57,216.93c0-0.53-0.74-0.66-0.91-0.16c-3.19,9-16.44,32.25-37.44,32.25
					c-28.87,0-25.01-18.84-35.18-34.24c-10.17-15.4-17.05,11.27-19.11,15.26c-2.06,3.99-9.21,5.22-15.26-5.64
					c-6.05-10.86-7.69-3.45-12.24-5.02c-7.56-2.61-11.14-16.25-11.14-16.25s4.68,68.98,70.68,68.98
					C612.13,272.12,615.65,228.58,615.57,216.93z"/>
				<linearGradient id="SVGID_19_" gradientUnits="userSpaceOnUse" x1="551.9532" y1="204.6856" x2="546.7283" y2="227.9231">
					<stop  offset="0" style="stop-color:#FFFFFF"/>
					<stop  offset="1" style="stop-color:#FFFFFF;stop-opacity:0"/>
				</linearGradient>
				<path class="st29" d="M615.57,216.93c0-0.53-0.74-0.66-0.91-0.16c-3.19,9-16.44,32.25-37.44,32.25
					c-28.87,0-25.01-18.84-35.18-34.24c-10.17-15.4-17.05,11.27-19.11,15.26c-2.06,3.99-9.21,5.22-15.26-5.64
					c-6.05-10.86-7.69-3.45-12.24-5.02c-7.56-2.61-11.14-16.25-11.14-16.25s4.68,68.98,70.68,68.98
					C612.13,272.12,615.65,228.58,615.57,216.93z"/>
				<g class="st30">
					<defs>
						<filter id="Adobe_OpacityMaskFilter_4_" filterUnits="userSpaceOnUse" x="497.54" y="218.32" width="98.66" height="46.67">
							<feFlood  style="flood-color:white;flood-opacity:1" result="back"/>
							<feBlend  in="SourceGraphic" in2="back" mode="normal"/>
						</filter>
					</defs>
					<mask maskUnits="userSpaceOnUse" x="497.54" y="218.32" width="98.66" height="46.67" id="SVGID_20_">
						<g class="st31">
							
								<image style="overflow:visible;" width="428" height="213" xlink:href="964A7AA8A1D3A673.jpg"  transform="matrix(0.24 0 0 0.24 495.4869 216.24)">
							</image>
						</g>
					</mask>
					<g class="st32">
						<path class="st11" d="M554.96,264.99c-24.57,0-42.68-10.35-53.83-30.78c-1.38-2.52-2.56-5.04-3.58-7.5
							c1.09-0.08,2.05-0.31,2.85-0.56c0.29,0.43,0.63,1,1.03,1.72c5.9,10.59,12.95,12.17,16.63,12.17c4.76,0,9.05-2.58,11.2-6.73
							c0.53-1.02,1.02-2.36,1.71-4.2c1.95-5.24,3.57-8.86,4.86-10.8c0.09,0.12,0.17,0.25,0.27,0.39c2.4,3.63,3.91,7.58,5.52,11.77
							c4.39,11.44,9.85,25.67,35.61,25.67c7.16,0,13.5-2.11,18.99-5.38c-0.16,0.17-0.33,0.34-0.5,0.51
							C586.67,260.37,572.96,264.99,554.96,264.99z"/>
					</g>
				</g>
			</g>
			<path class="st33" d="M484.28,203.14"/>
		</g>
		<g>
			<defs>
				<path id="SVGID_21_" d="M478.73,165.95c7.37-22.43,26.64,22.02,41.31,13.47c20.73-12.07,2.63-64.85,0-52.73
					c-2.63,12.12-12.85,11.54-12.85,11.54h-10.37C496.83,138.23,478.51,136.75,478.73,165.95L478.73,165.95z"/>
			</defs>
			<clipPath id="SVGID_22_">
				<use xlink:href="#SVGID_21_"  style="overflow:visible;"/>
			</clipPath>
		</g>
		<g>
			<defs>
				<path id="SVGID_23_" d="M615.57,216.93c0-0.53-0.74-0.66-0.91-0.16c-3.19,9-16.44,32.25-37.44,32.25
					c-28.87,0-25.01-18.84-35.18-34.24c-10.17-15.4-17.05,11.27-19.11,15.26c-2.06,3.99-9.21,5.22-15.26-5.64
					c-6.05-10.86-7.69-3.45-12.24-5.02c-7.56-2.61-11.14-16.25-11.14-16.25s4.68,68.98,70.68,68.98
					C612.13,272.12,615.65,228.58,615.57,216.93z"/>
			</defs>
			<clipPath id="SVGID_24_">
				<use xlink:href="#SVGID_23_"  style="overflow:visible;"/>
			</clipPath>
		</g>
		<g>
			<g>
				<path class="st34" d="M516.27,115.34L516.27,115.34L516.27,115.34c-0.07-0.43-0.16-0.85-0.26-1.28c0,0,0-0.01,0-0.01
					c-0.27-1.1-0.63-2.16-1.07-3.09c-0.09-0.18-0.17-0.36-0.26-0.53c-0.09-0.17-0.19-0.32-0.29-0.47c-0.13-0.2-0.26-0.39-0.39-0.56
					c-0.09-0.12-0.18-0.22-0.28-0.32c-0.16-0.17-0.33-0.31-0.5-0.43c-0.08-0.06-0.16-0.13-0.25-0.17c-0.26-0.14-0.53-0.23-0.8-0.23
					c-0.28,0-0.54,0.09-0.8,0.23c-0.09,0.05-0.17,0.12-0.25,0.17c-0.17,0.12-0.34,0.26-0.5,0.43c-0.1,0.1-0.19,0.21-0.28,0.32
					c-0.14,0.17-0.27,0.36-0.4,0.57c-0.1,0.15-0.2,0.3-0.29,0.47c-0.09,0.17-0.17,0.35-0.26,0.53c-0.44,0.93-0.81,1.99-1.07,3.09
					c0,0,0,0,0,0c-0.1,0.43-0.19,0.85-0.26,1.28v0l0,0c-0.14,0.82-0.23,1.63-0.23,2.36c0,3.76,1.94,4.15,4.34,4.15
					c2.4,0,4.34-0.39,4.34-4.15C516.49,116.97,516.4,116.16,516.27,115.34z"/>
				<linearGradient id="SVGID_25_" gradientUnits="userSpaceOnUse" x1="512.1509" y1="130.4471" x2="512.1509" y2="111.1585">
					<stop  offset="0" style="stop-color:#017ABD"/>
					<stop  offset="1" style="stop-color:#017ABD;stop-opacity:0"/>
				</linearGradient>
				<path class="st35" d="M516.27,115.34L516.27,115.34L516.27,115.34c-0.07-0.43-0.16-0.85-0.26-1.28c0,0,0-0.01,0-0.01
					c-0.27-1.1-0.63-2.16-1.07-3.09c-0.09-0.18-0.17-0.36-0.26-0.53c-0.09-0.17-0.19-0.32-0.29-0.47c-0.13-0.2-0.26-0.39-0.39-0.56
					c-0.09-0.12-0.18-0.22-0.28-0.32c-0.16-0.17-0.33-0.31-0.5-0.43c-0.08-0.06-0.16-0.13-0.25-0.17c-0.26-0.14-0.53-0.23-0.8-0.23
					c-0.28,0-0.54,0.09-0.8,0.23c-0.09,0.05-0.17,0.12-0.25,0.17c-0.17,0.12-0.34,0.26-0.5,0.43c-0.1,0.1-0.19,0.21-0.28,0.32
					c-0.14,0.17-0.27,0.36-0.4,0.57c-0.1,0.15-0.2,0.3-0.29,0.47c-0.09,0.17-0.17,0.35-0.26,0.53c-0.44,0.93-0.81,1.99-1.07,3.09
					c0,0,0,0,0,0c-0.1,0.43-0.19,0.85-0.26,1.28v0l0,0c-0.14,0.82-0.23,1.63-0.23,2.36c0,3.76,1.94,4.15,4.34,4.15
					c2.4,0,4.34-0.39,4.34-4.15C516.49,116.97,516.4,116.16,516.27,115.34z"/>
			</g>
			<g>
				<path class="st34" d="M497.37,196.17L497.37,196.17L497.37,196.17c-0.05-0.37-0.12-0.73-0.19-1.1c0,0,0-0.01,0-0.01
					c-0.2-0.95-0.47-1.86-0.8-2.65c-0.06-0.15-0.13-0.31-0.19-0.46c-0.07-0.15-0.14-0.27-0.22-0.41c-0.1-0.17-0.19-0.34-0.3-0.48
					c-0.07-0.1-0.14-0.19-0.21-0.28c-0.12-0.15-0.25-0.26-0.37-0.37c-0.06-0.05-0.12-0.11-0.19-0.15c-0.2-0.12-0.39-0.2-0.6-0.2
					c-0.21,0-0.41,0.08-0.6,0.2c-0.06,0.04-0.12,0.1-0.19,0.15c-0.13,0.1-0.25,0.22-0.37,0.37c-0.07,0.09-0.14,0.18-0.21,0.28
					c-0.1,0.15-0.2,0.31-0.3,0.49c-0.07,0.13-0.15,0.26-0.22,0.4c-0.07,0.14-0.13,0.3-0.19,0.46c-0.33,0.79-0.6,1.7-0.8,2.65
					c0,0,0,0,0,0c-0.08,0.37-0.14,0.73-0.19,1.1v0l0,0c-0.1,0.7-0.17,1.4-0.17,2.02c0,3.23,1.45,3.56,3.24,3.56
					c1.79,0,3.24-0.34,3.24-3.56C497.54,197.57,497.47,196.88,497.37,196.17z"/>
				<linearGradient id="SVGID_26_" gradientUnits="userSpaceOnUse" x1="494.2986" y1="209.1374" x2="494.2986" y2="192.5847">
					<stop  offset="0" style="stop-color:#017ABD"/>
					<stop  offset="1" style="stop-color:#017ABD;stop-opacity:0"/>
				</linearGradient>
				<path class="st36" d="M497.37,196.17L497.37,196.17L497.37,196.17c-0.05-0.37-0.12-0.73-0.19-1.1c0,0,0-0.01,0-0.01
					c-0.2-0.95-0.47-1.86-0.8-2.65c-0.06-0.15-0.13-0.31-0.19-0.46c-0.07-0.15-0.14-0.27-0.22-0.41c-0.1-0.17-0.19-0.34-0.3-0.48
					c-0.07-0.1-0.14-0.19-0.21-0.28c-0.12-0.15-0.25-0.26-0.37-0.37c-0.06-0.05-0.12-0.11-0.19-0.15c-0.2-0.12-0.39-0.2-0.6-0.2
					c-0.21,0-0.41,0.08-0.6,0.2c-0.06,0.04-0.12,0.1-0.19,0.15c-0.13,0.1-0.25,0.22-0.37,0.37c-0.07,0.09-0.14,0.18-0.21,0.28
					c-0.1,0.15-0.2,0.31-0.3,0.49c-0.07,0.13-0.15,0.26-0.22,0.4c-0.07,0.14-0.13,0.3-0.19,0.46c-0.33,0.79-0.6,1.7-0.8,2.65
					c0,0,0,0,0,0c-0.08,0.37-0.14,0.73-0.19,1.1v0l0,0c-0.1,0.7-0.17,1.4-0.17,2.02c0,3.23,1.45,3.56,3.24,3.56
					c1.79,0,3.24-0.34,3.24-3.56C497.54,197.57,497.47,196.88,497.37,196.17z"/>
			</g>
			<circle class="st34" cx="559.54" cy="62.77" r="1.44"/>
			<linearGradient id="SVGID_27_" gradientUnits="userSpaceOnUse" x1="558.0939" y1="62.774" x2="560.9814" y2="62.774">
				<stop  offset="0" style="stop-color:#017ABD"/>
				<stop  offset="1" style="stop-color:#017ABD;stop-opacity:0"/>
			</linearGradient>
			<circle class="st37" cx="559.54" cy="62.77" r="1.44"/>
			<circle class="st34" cx="631.73" cy="149.74" r="1.44"/>
			<linearGradient id="SVGID_28_" gradientUnits="userSpaceOnUse" x1="630.2814" y1="149.7361" x2="633.1689" y2="149.7361">
				<stop  offset="0" style="stop-color:#017ABD"/>
				<stop  offset="1" style="stop-color:#017ABD;stop-opacity:0"/>
			</linearGradient>
			<circle class="st38" cx="631.73" cy="149.74" r="1.44"/>
			<circle class="st34" cx="473.64" cy="187.3" r="1.44"/>
			<linearGradient id="SVGID_29_" gradientUnits="userSpaceOnUse" x1="472.1939" y1="187.2962" x2="475.0815" y2="187.2962">
				<stop  offset="0" style="stop-color:#017ABD"/>
				<stop  offset="1" style="stop-color:#017ABD;stop-opacity:0"/>
			</linearGradient>
			<circle class="st39" cx="473.64" cy="187.3" r="1.44"/>
			<circle class="st34" cx="560.25" cy="231.01" r="1.44"/>
			<linearGradient id="SVGID_30_" gradientUnits="userSpaceOnUse" x1="558.8065" y1="231.0059" x2="561.694" y2="231.0059">
				<stop  offset="0" style="stop-color:#017ABD"/>
				<stop  offset="1" style="stop-color:#017ABD;stop-opacity:0"/>
			</linearGradient>
			<circle class="st40" cx="560.25" cy="231.01" r="1.44"/>
			<circle class="st34" cx="499.13" cy="184.24" r="1.12"/>
			<linearGradient id="SVGID_31_" gradientUnits="userSpaceOnUse" x1="498.0027" y1="184.237" x2="500.2506" y2="184.237">
				<stop  offset="0" style="stop-color:#017ABD"/>
				<stop  offset="1" style="stop-color:#017ABD;stop-opacity:0"/>
			</linearGradient>
			<circle class="st41" cx="499.13" cy="184.24" r="1.12"/>
			<circle class="st34" cx="626.77" cy="243.97" r="1.44"/>
			<linearGradient id="SVGID_32_" gradientUnits="userSpaceOnUse" x1="625.3252" y1="243.974" x2="628.2127" y2="243.974">
				<stop  offset="0" style="stop-color:#017ABD"/>
				<stop  offset="1" style="stop-color:#017ABD;stop-opacity:0"/>
			</linearGradient>
			<circle class="st42" cx="626.77" cy="243.97" r="1.44"/>
			<path class="st34" d="M618.66,201.9L618.66,201.9L618.66,201.9c-0.07-0.5-0.15-1-0.24-1.5c0,0,0,0,0,0
				c-0.25-1.3-0.59-2.54-1.01-3.63c-0.08-0.21-0.16-0.43-0.24-0.62c-0.09-0.2-0.18-0.37-0.27-0.56c-0.12-0.24-0.24-0.46-0.37-0.66
				c-0.09-0.14-0.17-0.26-0.26-0.38c-0.15-0.2-0.31-0.36-0.47-0.5c-0.08-0.07-0.15-0.15-0.23-0.2c-0.25-0.16-0.5-0.27-0.76-0.27
				c-0.26,0-0.51,0.11-0.76,0.27c-0.08,0.05-0.16,0.13-0.23,0.2c-0.16,0.14-0.32,0.3-0.47,0.5c-0.09,0.12-0.18,0.24-0.26,0.38
				c-0.13,0.2-0.25,0.43-0.37,0.67c-0.09,0.18-0.18,0.35-0.27,0.55c-0.09,0.2-0.16,0.41-0.24,0.62c-0.42,1.09-0.76,2.33-1.01,3.63
				c0,0,0,0.01,0,0.01c-0.1,0.5-0.18,1-0.24,1.5v0l0,0c-0.13,0.96-0.21,1.91-0.21,2.77c0,4.41,1.83,4.88,4.09,4.88
				c2.26,0,4.09-0.46,4.09-4.88C618.88,203.81,618.79,202.86,618.66,201.9z"/>
			<linearGradient id="SVGID_33_" gradientUnits="userSpaceOnUse" x1="614.8838" y1="218.225" x2="614.7463" y2="198.8375">
				<stop  offset="0" style="stop-color:#017ABD"/>
				<stop  offset="1" style="stop-color:#017ABD;stop-opacity:0"/>
			</linearGradient>
			<path class="st43" d="M618.66,201.9L618.66,201.9L618.66,201.9c-0.07-0.5-0.15-1-0.24-1.5c0,0,0,0,0,0
				c-0.25-1.3-0.59-2.54-1.01-3.63c-0.08-0.21-0.16-0.43-0.24-0.62c-0.09-0.2-0.18-0.37-0.27-0.56c-0.12-0.24-0.24-0.46-0.37-0.66
				c-0.09-0.14-0.17-0.26-0.26-0.38c-0.15-0.2-0.31-0.36-0.47-0.5c-0.08-0.07-0.15-0.15-0.23-0.2c-0.25-0.16-0.5-0.27-0.76-0.27
				c-0.26,0-0.51,0.11-0.76,0.27c-0.08,0.05-0.16,0.13-0.23,0.2c-0.16,0.14-0.32,0.3-0.47,0.5c-0.09,0.12-0.18,0.24-0.26,0.38
				c-0.13,0.2-0.25,0.43-0.37,0.67c-0.09,0.18-0.18,0.35-0.27,0.55c-0.09,0.2-0.16,0.41-0.24,0.62c-0.42,1.09-0.76,2.33-1.01,3.63
				c0,0,0,0.01,0,0.01c-0.1,0.5-0.18,1-0.24,1.5v0l0,0c-0.13,0.96-0.21,1.91-0.21,2.77c0,4.41,1.83,4.88,4.09,4.88
				c2.26,0,4.09-0.46,4.09-4.88C618.88,203.81,618.79,202.86,618.66,201.9z"/>
			<g>
				<path class="st34" d="M549.79,77.87L549.79,77.87L549.79,77.87c-0.07-0.4-0.15-0.8-0.24-1.2c0,0,0-0.01,0-0.01
					c-0.25-1.04-0.59-2.04-1.01-2.91c-0.08-0.17-0.16-0.34-0.24-0.5c-0.09-0.16-0.18-0.3-0.27-0.45c-0.12-0.19-0.24-0.37-0.37-0.53
					c-0.09-0.11-0.17-0.21-0.26-0.3c-0.15-0.16-0.31-0.29-0.47-0.4c-0.08-0.06-0.16-0.12-0.24-0.16c-0.25-0.13-0.5-0.22-0.76-0.22
					s-0.51,0.09-0.76,0.22c-0.08,0.04-0.16,0.11-0.24,0.16c-0.16,0.11-0.32,0.24-0.47,0.4c-0.09,0.09-0.18,0.19-0.26,0.3
					c-0.13,0.16-0.25,0.34-0.37,0.53c-0.09,0.15-0.18,0.28-0.27,0.44c-0.09,0.16-0.16,0.33-0.24,0.5c-0.42,0.87-0.76,1.87-1.01,2.91
					c0,0,0,0,0,0c-0.1,0.4-0.18,0.8-0.24,1.21v0l0,0c-0.13,0.77-0.21,1.53-0.21,2.22c0,3.54,1.83,3.91,4.09,3.91
					c2.26,0,4.09-0.37,4.09-3.91C550,79.4,549.91,78.64,549.79,77.87z"/>
				<linearGradient id="SVGID_34_" gradientUnits="userSpaceOnUse" x1="545.9136" y1="92.0874" x2="545.9136" y2="73.9291">
					<stop  offset="0" style="stop-color:#017ABD"/>
					<stop  offset="1" style="stop-color:#017ABD;stop-opacity:0"/>
				</linearGradient>
				<path class="st44" d="M549.79,77.87L549.79,77.87L549.79,77.87c-0.07-0.4-0.15-0.8-0.24-1.2c0,0,0-0.01,0-0.01
					c-0.25-1.04-0.59-2.04-1.01-2.91c-0.08-0.17-0.16-0.34-0.24-0.5c-0.09-0.16-0.18-0.3-0.27-0.45c-0.12-0.19-0.24-0.37-0.37-0.53
					c-0.09-0.11-0.17-0.21-0.26-0.3c-0.15-0.16-0.31-0.29-0.47-0.4c-0.08-0.06-0.16-0.12-0.24-0.16c-0.25-0.13-0.5-0.22-0.76-0.22
					s-0.51,0.09-0.76,0.22c-0.08,0.04-0.16,0.11-0.24,0.16c-0.16,0.11-0.32,0.24-0.47,0.4c-0.09,0.09-0.18,0.19-0.26,0.3
					c-0.13,0.16-0.25,0.34-0.37,0.53c-0.09,0.15-0.18,0.28-0.27,0.44c-0.09,0.16-0.16,0.33-0.24,0.5c-0.42,0.87-0.76,1.87-1.01,2.91
					c0,0,0,0,0,0c-0.1,0.4-0.18,0.8-0.24,1.21v0l0,0c-0.13,0.77-0.21,1.53-0.21,2.22c0,3.54,1.83,3.91,4.09,3.91
					c2.26,0,4.09-0.37,4.09-3.91C550,79.4,549.91,78.64,549.79,77.87z"/>
			</g>
			<g>
				<path class="st34" d="M592.81,92.33L592.81,92.33L592.81,92.33c-0.04-0.25-0.09-0.5-0.15-0.76c0,0,0,0,0-0.01
					c-0.16-0.65-0.37-1.28-0.64-1.83c-0.05-0.11-0.1-0.22-0.15-0.32c-0.06-0.1-0.11-0.19-0.17-0.28c-0.08-0.12-0.15-0.23-0.23-0.33
					c-0.05-0.07-0.11-0.13-0.17-0.19c-0.1-0.1-0.2-0.18-0.3-0.25c-0.05-0.03-0.1-0.08-0.15-0.1c-0.15-0.08-0.31-0.14-0.48-0.14
					c-0.16,0-0.32,0.05-0.48,0.14c-0.05,0.03-0.1,0.07-0.15,0.1c-0.1,0.07-0.2,0.15-0.3,0.25c-0.06,0.06-0.11,0.12-0.17,0.19
					c-0.08,0.1-0.16,0.21-0.24,0.34c-0.06,0.09-0.12,0.18-0.17,0.28c-0.05,0.1-0.1,0.21-0.15,0.32c-0.26,0.55-0.48,1.18-0.64,1.83
					c0,0,0,0,0,0c-0.06,0.25-0.11,0.51-0.15,0.76v0l0,0c-0.08,0.49-0.14,0.97-0.14,1.4c0,2.23,1.15,2.46,2.58,2.46
					c1.42,0,2.58-0.23,2.58-2.46C592.95,93.3,592.89,92.82,592.81,92.33z"/>
				<linearGradient id="SVGID_35_" gradientUnits="userSpaceOnUse" x1="590.3721" y1="101.2941" x2="590.3721" y2="89.8528">
					<stop  offset="0" style="stop-color:#017ABD"/>
					<stop  offset="1" style="stop-color:#017ABD;stop-opacity:0"/>
				</linearGradient>
				<path class="st45" d="M592.81,92.33L592.81,92.33L592.81,92.33c-0.04-0.25-0.09-0.5-0.15-0.76c0,0,0,0,0-0.01
					c-0.16-0.65-0.37-1.28-0.64-1.83c-0.05-0.11-0.1-0.22-0.15-0.32c-0.06-0.1-0.11-0.19-0.17-0.28c-0.08-0.12-0.15-0.23-0.23-0.33
					c-0.05-0.07-0.11-0.13-0.17-0.19c-0.1-0.1-0.2-0.18-0.3-0.25c-0.05-0.03-0.1-0.08-0.15-0.1c-0.15-0.08-0.31-0.14-0.48-0.14
					c-0.16,0-0.32,0.05-0.48,0.14c-0.05,0.03-0.1,0.07-0.15,0.1c-0.1,0.07-0.2,0.15-0.3,0.25c-0.06,0.06-0.11,0.12-0.17,0.19
					c-0.08,0.1-0.16,0.21-0.24,0.34c-0.06,0.09-0.12,0.18-0.17,0.28c-0.05,0.1-0.1,0.21-0.15,0.32c-0.26,0.55-0.48,1.18-0.64,1.83
					c0,0,0,0,0,0c-0.06,0.25-0.11,0.51-0.15,0.76v0l0,0c-0.08,0.49-0.14,0.97-0.14,1.4c0,2.23,1.15,2.46,2.58,2.46
					c1.42,0,2.58-0.23,2.58-2.46C592.95,93.3,592.89,92.82,592.81,92.33z"/>
			</g>
		</g>
	</g>
	<g>
		<g>
			<g>
				<g>
					<ellipse class="st2" cx="184.63" cy="293.26" rx="26.83" ry="5.41"/>
				</g>
				<path class="st2" d="M248.05,216.77c0,0-4.3,7.99-13.49,7.99c-12.75,0-7.36-17.47-14.55-16.99c-5.92,0.4-3.99,13.79-11.14,25.16
					c-7.73,12.31-25.69,1.4-25.69,1.4l-24.61-10.09c-13.43-5.55-12.81-29.52-17.61-31.78c-4.8-2.27-6.7,14.08-11.09,15.47
					c-0.64,0.2-1.31,0.32-1.99,0.31c-1.09-0.02-2.13-0.39-3.05-0.96c-0.97-0.6-1.8-1.4-2.58-2.22c-0.06-0.07-0.13-0.14-0.19-0.21
					c-0.54-0.57-1.05-1.16-1.56-1.75c-0.27-0.32-0.52-0.66-0.79-0.98c-0.23-0.27-0.51-0.56-0.88-0.59
					c-0.34-0.03-0.67,0.27-0.84,0.53c-0.43,0.64-0.29,1.31-0.22,2.03c0.03,0.32,0.06,0.63,0.1,0.95c0,0,3.86,42.53,50.68,54.9
					s73.42-20.21,73.42-20.21L248.05,216.77z"/>
				<path class="st4" d="M173.07,134.68"/>
				<path class="st5" d="M221.13,101.67c-4.58-0.72-6.6,18.97-21.04,15.06c-14.44-3.92-18.98-18.15-19.8-23.31s-4.95,0-4.95,0
					s-14.03,13.61-5.78,42.9s24.44,16.89,34.9,15.68c17.7-2.06,15.84,14.44,34.2,9.49c18.36-4.95,11.01-37.07,5.77-39.81
					c-0.85-0.44-0.95,1.95-0.97,2.38c-0.18,2.91-0.69,5.85-2.16,8.41c-1.12,1.95-2.98,3.31-4.91,1.45
					C231.45,129.17,223.33,102.02,221.13,101.67z"/>
				<path class="st2" d="M182.64,154.93c2.97,0.88,8.03,1.13,13.64-3.44c8.87-7.22,22.79-27.84,27.43-22.17s5.88,12.58,11.14,11.34
					c1.17-0.28,2.19-0.96,3.04-1.8c3.94-3.91,4.84-10.02,5.55-15.23c0.05-0.37,0.25-2.33,1-1.94c5.24,2.73,12.58,34.86-5.77,39.81
					c-18.36,4.95-16.5-11.55-34.2-9.49C198.26,152.72,190.03,157.39,182.64,154.93l-2.74-1.3"/>
				<g>
					<path class="st2" d="M131.67,163.16c-3.5,0-6.69-0.47-9.65-1.26c-2.8,9.72-2.6,12.39-2.6,12.39s-1.53,18.24,3.6,13.73
						c5.02-4.41,4.39-16.87,15.39-14.59l-3.61-10.43C133.78,163.09,132.75,163.16,131.67,163.16z"/>
					<path class="st5" d="M119.43,174.29c6.97-21.21,25.19,14.01,39.07,5.93c19.61-11.41,2.49-68.14,0-56.67
						s-12.16,10.91-12.16,10.91h-0.03c-7.64,0-14.8,3.85-18.89,10.3C123.29,151.28,119.33,161,119.43,174.29L119.43,174.29z"/>
					<path class="st5" d="M119.43,174.29c6.97-21.21,25.19,14.01,39.07,5.93c19.61-11.41,2.49-68.14,0-56.67
						s-12.16,10.91-12.16,10.91h-0.03c-7.64,0-14.8,3.85-18.89,10.3C123.29,151.28,119.33,161,119.43,174.29L119.43,174.29z"/>
				</g>
				<g class="st22">
					<ellipse class="st25" cx="184.96" cy="290.53" rx="15.12" ry="2.73"/>
				</g>
				<path class="st5" d="M248.96,216.93c0-0.53-0.74-0.66-0.91-0.16c-3.19,9-16.44,32.25-37.44,32.25
					c-28.87,0-25.01-18.84-35.18-34.24c-10.17-15.4-17.05,11.27-19.11,15.26c-2.06,3.99-9.21,5.22-15.26-5.64
					c-6.05-10.86-7.69-3.45-12.24-5.02c-7.56-2.61-11.14-16.25-11.14-16.25s4.68,68.98,70.68,68.98
					C245.52,272.12,249.04,228.58,248.96,216.93z"/>
			</g>
			<path class="st33" d="M117.68,203.14"/>
		</g>
		<g>
			<defs>
				<path id="SVGID_36_" d="M112.13,165.95c7.37-22.43,26.64,22.02,41.31,13.47c20.73-12.07,2.63-64.85,0-52.73
					s-12.85,11.54-12.85,11.54h-10.37C130.22,138.23,111.9,136.75,112.13,165.95L112.13,165.95z"/>
			</defs>
			<clipPath id="SVGID_37_">
				<use xlink:href="#SVGID_36_"  style="overflow:visible;"/>
			</clipPath>
		</g>
		<g>
			<defs>
				<path id="SVGID_38_" d="M248.96,216.93c0-0.53-0.74-0.66-0.91-0.16c-3.19,9-16.44,32.25-37.44,32.25
					c-28.87,0-25.01-18.84-35.18-34.24c-10.17-15.4-17.05,11.27-19.11,15.26c-2.06,3.99-9.21,5.22-15.26-5.64
					c-6.05-10.86-7.69-3.45-12.24-5.02c-7.56-2.61-11.14-16.25-11.14-16.25s4.68,68.98,70.68,68.98
					C245.52,272.12,249.04,228.58,248.96,216.93z"/>
			</defs>
			<clipPath id="SVGID_39_">
				<use xlink:href="#SVGID_38_"  style="overflow:visible;"/>
			</clipPath>
		</g>
		<g>
			<g>
				<path class="st34" d="M149.66,115.34L149.66,115.34L149.66,115.34c-0.07-0.43-0.16-0.85-0.26-1.28c0,0,0-0.01,0-0.01
					c-0.27-1.1-0.63-2.16-1.07-3.09c-0.09-0.18-0.17-0.36-0.26-0.53c-0.09-0.17-0.19-0.32-0.29-0.47c-0.13-0.2-0.26-0.39-0.39-0.56
					c-0.09-0.12-0.18-0.22-0.28-0.32c-0.16-0.17-0.33-0.31-0.5-0.43c-0.08-0.06-0.16-0.13-0.25-0.17c-0.26-0.14-0.53-0.23-0.8-0.23
					s-0.54,0.09-0.8,0.23c-0.09,0.05-0.17,0.12-0.25,0.17c-0.17,0.12-0.34,0.26-0.5,0.43c-0.1,0.1-0.19,0.21-0.28,0.32
					c-0.14,0.17-0.27,0.36-0.4,0.57c-0.1,0.15-0.2,0.3-0.29,0.47c-0.09,0.17-0.17,0.35-0.26,0.53c-0.44,0.93-0.81,1.99-1.07,3.09
					c0,0,0,0,0,0c-0.1,0.43-0.19,0.85-0.26,1.28v0l0,0c-0.14,0.82-0.23,1.63-0.23,2.36c0,3.76,1.94,4.15,4.34,4.15
					c2.4,0,4.34-0.39,4.34-4.15C149.89,116.97,149.8,116.16,149.66,115.34z"/>
			</g>
			<g>
				<path class="st34" d="M130.77,196.17L130.77,196.17L130.77,196.17c-0.05-0.37-0.12-0.73-0.19-1.1c0,0,0-0.01,0-0.01
					c-0.2-0.95-0.47-1.86-0.8-2.65c-0.06-0.15-0.13-0.31-0.19-0.46c-0.07-0.15-0.14-0.27-0.22-0.41c-0.1-0.17-0.19-0.34-0.3-0.48
					c-0.07-0.1-0.14-0.19-0.21-0.28c-0.12-0.15-0.25-0.26-0.37-0.37c-0.06-0.05-0.12-0.11-0.19-0.15c-0.19-0.12-0.39-0.2-0.6-0.2
					c-0.21,0-0.41,0.08-0.6,0.2c-0.06,0.04-0.12,0.1-0.19,0.15c-0.13,0.1-0.25,0.22-0.37,0.37c-0.07,0.09-0.14,0.18-0.21,0.28
					c-0.1,0.15-0.2,0.31-0.3,0.49c-0.07,0.13-0.15,0.26-0.22,0.4c-0.07,0.14-0.13,0.3-0.19,0.46c-0.33,0.79-0.6,1.7-0.8,2.65
					c0,0,0,0,0,0c-0.08,0.37-0.14,0.73-0.19,1.1v0l0,0c-0.1,0.7-0.17,1.4-0.17,2.02c0,3.23,1.45,3.56,3.24,3.56
					c1.79,0,3.24-0.34,3.24-3.56C130.94,197.57,130.87,196.88,130.77,196.17z"/>
			</g>
			<circle class="st34" cx="192.93" cy="62.77" r="1.44"/>
			<circle class="st34" cx="265.12" cy="149.74" r="1.44"/>
			<circle class="st34" cx="107.03" cy="187.3" r="1.44"/>
			<circle class="st34" cx="193.65" cy="231.01" r="1.44"/>
			<circle class="st34" cx="132.52" cy="184.24" r="1.12"/>
			<circle class="st34" cx="260.17" cy="243.97" r="1.44"/>
			<path class="st34" d="M252.06,201.9L252.06,201.9L252.06,201.9c-0.07-0.5-0.15-1-0.24-1.5c0,0,0,0,0,0
				c-0.25-1.3-0.59-2.54-1.01-3.63c-0.08-0.21-0.16-0.43-0.24-0.62c-0.09-0.2-0.18-0.37-0.27-0.56c-0.12-0.24-0.24-0.46-0.37-0.66
				c-0.09-0.14-0.17-0.26-0.26-0.38c-0.15-0.2-0.31-0.36-0.47-0.5c-0.08-0.07-0.15-0.15-0.23-0.2c-0.25-0.16-0.5-0.27-0.76-0.27
				c-0.26,0-0.51,0.11-0.76,0.27c-0.08,0.05-0.16,0.13-0.23,0.2c-0.16,0.14-0.32,0.3-0.47,0.5c-0.09,0.12-0.18,0.24-0.26,0.38
				c-0.13,0.2-0.25,0.43-0.37,0.67c-0.09,0.18-0.18,0.35-0.27,0.55c-0.09,0.2-0.16,0.41-0.24,0.62c-0.42,1.09-0.76,2.33-1.01,3.63
				c0,0,0,0.01,0,0.01c-0.1,0.5-0.18,1-0.24,1.5v0l0,0c-0.13,0.96-0.21,1.91-0.21,2.77c0,4.41,1.83,4.88,4.09,4.88
				c2.26,0,4.09-0.46,4.09-4.88C252.27,203.81,252.19,202.86,252.06,201.9z"/>
			<g>
				<path class="st34" d="M183.18,77.87L183.18,77.87L183.18,77.87c-0.07-0.4-0.15-0.8-0.24-1.2c0,0,0-0.01,0-0.01
					c-0.25-1.04-0.59-2.04-1.01-2.91c-0.08-0.17-0.16-0.34-0.24-0.5c-0.09-0.16-0.18-0.3-0.27-0.45c-0.12-0.19-0.24-0.37-0.37-0.53
					c-0.09-0.11-0.17-0.21-0.26-0.3c-0.15-0.16-0.31-0.29-0.47-0.4c-0.08-0.06-0.16-0.12-0.24-0.16c-0.25-0.13-0.5-0.22-0.76-0.22
					s-0.51,0.09-0.76,0.22c-0.08,0.04-0.16,0.11-0.24,0.16c-0.16,0.11-0.32,0.24-0.47,0.4c-0.09,0.09-0.18,0.19-0.26,0.3
					c-0.13,0.16-0.25,0.34-0.37,0.53c-0.09,0.15-0.18,0.28-0.27,0.44c-0.09,0.16-0.16,0.33-0.24,0.5c-0.42,0.87-0.76,1.87-1.01,2.91
					c0,0,0,0,0,0c-0.1,0.4-0.18,0.8-0.24,1.21v0l0,0c-0.13,0.77-0.21,1.53-0.21,2.22c0,3.54,1.83,3.91,4.09,3.91
					c2.26,0,4.09-0.37,4.09-3.91C183.4,79.4,183.31,78.64,183.18,77.87z"/>
			</g>
			<g>
				<path class="st34" d="M226.21,92.33L226.21,92.33L226.21,92.33c-0.04-0.25-0.09-0.5-0.15-0.76c0,0,0,0,0-0.01
					c-0.16-0.65-0.37-1.28-0.64-1.83c-0.05-0.11-0.1-0.22-0.15-0.32c-0.06-0.1-0.11-0.19-0.17-0.28c-0.08-0.12-0.15-0.23-0.23-0.33
					c-0.05-0.07-0.11-0.13-0.17-0.19c-0.1-0.1-0.2-0.18-0.3-0.25c-0.05-0.03-0.1-0.08-0.15-0.1c-0.15-0.08-0.31-0.14-0.48-0.14
					s-0.32,0.05-0.48,0.14c-0.05,0.03-0.1,0.07-0.15,0.1c-0.1,0.07-0.2,0.15-0.3,0.25c-0.06,0.06-0.11,0.12-0.17,0.19
					c-0.08,0.1-0.16,0.21-0.24,0.34c-0.06,0.09-0.12,0.18-0.17,0.28c-0.05,0.1-0.1,0.21-0.15,0.32c-0.26,0.55-0.48,1.18-0.64,1.83
					c0,0,0,0,0,0c-0.06,0.25-0.11,0.51-0.15,0.76v0l0,0c-0.08,0.49-0.14,0.97-0.14,1.4c0,2.23,1.15,2.46,2.58,2.46
					c1.42,0,2.58-0.23,2.58-2.46C226.34,93.3,226.29,92.82,226.21,92.33z"/>
			</g>
		</g>
	</g>
</g>
<g id="Layer_2" class="st46">
	<g class="st47">
		
			<image style="overflow:visible;" width="1501" height="1500" id="IkP1Jf_1_" xlink:href="964A7AA8A1D3A67E.jpg"  transform="matrix(0.2398 0 0 0.2398 366.6033 0.1199)">
		</image>
	</g>
</g>
</svg>
