<?xml version="1.0" encoding="utf-8"?>
<!-- Generator: Adobe Illustrator 23.0.1, SVG Export Plug-In . SVG Version: 6.00 Build 0)  -->
<svg version="1.1" id="Layer_1" xmlns="http://www.w3.org/2000/svg" xmlns:xlink="http://www.w3.org/1999/xlink" x="0px" y="0px"
	 viewBox="0 0 300 400" style="enable-background:new 0 0 300 400;" xml:space="preserve">
<path d="M149.74,65.84c-56.02,0-101.44,45.42-101.44,101.44s45.42,101.44,101.44,101.44c56.02,0,101.44-45.42,101.44-101.44
	S205.76,65.84,149.74,65.84z M149.73,237.52c-38.73,0-70.13-31.4-70.13-70.14c0-38.73,31.4-70.13,70.13-70.13
	c38.74,0,70.14,31.4,70.14,70.13C219.87,206.12,188.47,237.52,149.73,237.52z"/>
<polygon points="240.41,259.82 149.74,298.98 59.06,259.82 44,288.7 149.74,333.76 255.47,288.7 "/>
</svg>
